<svg version="1.1" viewBox="0.0 0.0 513.3359580052494 496.07086614173227" fill="none" stroke="none" stroke-linecap="square" stroke-miterlimit="10" xmlns:xlink="http://www.w3.org/1999/xlink" xmlns="http://www.w3.org/2000/svg"><clipPath id="p.0"><path d="m0 0l513.33594 0l0 496.07086l-513.33594 0l0 -496.07086z" clip-rule="nonzero"/></clipPath><g clip-path="url(#p.0)"><path fill="#000000" fill-opacity="0.0" d="m0 0l513.33594 0l0 496.07086l-513.33594 0z" fill-rule="evenodd"/><path fill="#ef8c8f" d="m47.834633 297.49472c0 -98.9155 71.486374 -179.10236 159.66928 -179.10236c42.346924 0 82.95943 18.86966 112.903244 52.45787c29.943787 33.58821 46.766052 79.143585 46.766052 126.644485c0 98.9155 -71.48639 179.10236 -159.6693 179.10236c-88.182915 0 -159.66928 -80.18686 -159.66928 -179.10236z" fill-rule="evenodd"/><path stroke="#000000" stroke-width="25.674540682414698" stroke-linejoin="round" stroke-linecap="butt" d="m47.834633 297.49472c0 -98.9155 71.486374 -179.10236 159.66928 -179.10236c42.346924 0 82.95943 18.86966 112.903244 52.45787c29.943787 33.58821 46.766052 79.143585 46.766052 126.644485c0 98.9155 -71.48639 179.10236 -159.6693 179.10236c-88.182915 0 -159.66928 -80.18686 -159.66928 -179.10236z" fill-rule="evenodd"/><path fill="#ef8c8f" d="m126.55036 302.29056c0 -98.91551 71.48638 -179.10237 159.66931 -179.10237c42.346924 0 82.95941 18.86966 112.90323 52.45787c29.943787 33.58821 46.766052 79.143585 46.766052 126.6445c0 98.9155 -71.48639 179.10236 -159.66928 179.10236c-88.18292 0 -159.66931 -80.18686 -159.66931 -179.10236z" fill-rule="evenodd"/><path stroke="#000000" stroke-width="25.674540682414698" stroke-linejoin="round" stroke-linecap="butt" d="m126.55036 302.29056c0 -98.91551 71.48638 -179.10237 159.66931 -179.10237c42.346924 0 82.95941 18.86966 112.90323 52.45787c29.943787 33.58821 46.766052 79.143585 46.766052 126.6445c0 98.9155 -71.48639 179.10236 -159.66928 179.10236c-88.18292 0 -159.66931 -80.18686 -159.66931 -179.10236z" fill-rule="evenodd"/><path fill="#ef8c8f" d="m79.10865 298.9379c0 -92.38376 55.16416 -167.27559 123.21259 -167.27559c32.678024 0 64.017624 17.623627 87.124466 48.99388c23.106842 31.370255 36.088135 73.91745 36.088135 118.28171c0 92.38376 -55.164154 167.27557 -123.2126 167.27557c-68.04843 0 -123.21259 -74.891815 -123.21259 -167.27557z" fill-rule="evenodd"/><path fill="#000000" fill-opacity="0.0" d="m244.00342 26.471516l0 107.086624" fill-rule="evenodd"/><path stroke="#000000" stroke-width="25.674540682414698" stroke-linejoin="round" stroke-linecap="butt" d="m244.00342 26.471516l0 107.086624" fill-rule="evenodd"/><path fill="#5fc39c" d="m265.91577 26.913746c18.795227 -4.9121685 66.008484 -18.279444 92.83621 -14.923781c26.827728 3.3556623 47.149506 12.402616 68.13016 35.05776c20.980652 22.655136 68.76532 82.40452 57.753723 100.873085c-11.011627 18.468567 -92.6109 13.338608 -123.823456 9.938293c-31.212555 -3.4003143 -44.313232 -10.940842 -63.451874 -30.340195c-19.13861 -19.399353 -46.139084 -69.28841 -51.379883 -86.05594c-5.240799 -16.767527 1.1399078 -9.637054 19.93512 -14.549221z" fill-rule="evenodd"/><path stroke="#000000" stroke-width="18.758530183727032" stroke-linejoin="round" stroke-linecap="butt" d="m265.91577 26.913746c18.795227 -4.9121685 66.008484 -18.279444 92.83621 -14.923781c26.827728 3.3556623 47.149506 12.402616 68.13016 35.05776c20.980652 22.655136 68.76532 82.40452 57.753723 100.873085c-11.011627 18.468567 -92.6109 13.338608 -123.823456 9.938293c-31.212555 -3.4003143 -44.313232 -10.940842 -63.451874 -30.340195c-19.13861 -19.399353 -46.139084 -69.28841 -51.379883 -86.05594c-5.240799 -16.767527 1.1399078 -9.637054 19.93512 -14.549221z" fill-rule="evenodd"/><path fill="#000000" fill-opacity="0.0" d="m255.48634 44.745163l183.07903 82.272804" fill-rule="evenodd"/><path stroke="#000000" stroke-width="18.758530183727032" stroke-linejoin="round" stroke-linecap="butt" d="m255.48634 44.745163l183.07903 82.272804" fill-rule="evenodd"/></g></svg>