<svg version="1.1" viewBox="0.0 0.0 960.0 720.0" fill="none" stroke="none" stroke-linecap="square" stroke-miterlimit="10" xmlns:xlink="http://www.w3.org/1999/xlink" xmlns="http://www.w3.org/2000/svg"><clipPath id="p.0"><path d="m0 0l960.0 0l0 720.0l-960.0 0l0 -720.0z" clip-rule="nonzero"/></clipPath><g clip-path="url(#p.0)"><path fill="#000000" fill-opacity="0.0" d="m0 0l960.0 0l0 720.0l-960.0 0z" fill-rule="evenodd"/><path fill="#5fc39c" d="m467.16565 592.62726c-44.184784 -3.6773071 -156.05112 -10.427307 -210.29517 -40.760437c-54.24402 -30.33313 -89.796646 -69.049805 -115.16901 -141.23828c-25.372345 -72.18848 -76.22176 -256.32397 -37.0651 -291.89255c39.15667 -35.568558 208.4664 44.40931 272.0051 78.48118c63.538696 34.071854 85.00409 63.164413 109.22702 125.95c24.222961 62.785583 39.227814 205.85352 36.110687 250.76349c-3.1171875 44.910034 -10.628784 22.373901 -54.813538 18.696594z" fill-rule="evenodd"/><path stroke="#000000" stroke-width="31.84776902887139" stroke-linejoin="round" stroke-linecap="butt" d="m467.16565 592.62726c-44.184784 -3.6773071 -156.05112 -10.427307 -210.29517 -40.760437c-54.24402 -30.33313 -89.796646 -69.049805 -115.16901 -141.23828c-25.372345 -72.18848 -76.22176 -256.32397 -37.0651 -291.89255c39.15667 -35.568558 208.4664 44.40931 272.0051 78.48118c63.538696 34.071854 85.00409 63.164413 109.22702 125.95c24.222961 62.785583 39.227814 205.85352 36.110687 250.76349c-3.1171875 44.910034 -10.628784 22.373901 -54.813538 18.696594z" fill-rule="evenodd"/><path fill="#000000" fill-opacity="0.0" d="m152.05946 169.98662l354.4657 430.82568" fill-rule="evenodd"/><path stroke="#000000" stroke-width="31.84776902887139" stroke-linejoin="round" stroke-linecap="butt" d="m152.05946 169.98662l354.4657 430.82568" fill-rule="evenodd"/><path fill="#5fc39c" d="m593.7693 528.5729c-9.440186 -31.910553 -35.129333 -112.06915 -28.680481 -157.61725c6.4489136 -45.548096 23.835327 -80.050446 67.37384 -115.67136c43.538574 -35.62094 158.36469 -116.749756 193.85748 -98.05423c35.492798 18.695526 25.634094 157.23474 19.099426 210.22739c-6.534729 52.992645 -21.026062 75.234955 -58.30768 107.728516c-37.281616 32.49353 -133.1582 78.33493 -165.38196 87.23276c-32.223755 8.897827 -18.520447 -1.9353638 -27.960632 -33.845825z" fill-rule="evenodd"/><path stroke="#000000" stroke-width="31.84776902887139" stroke-linejoin="round" stroke-linecap="butt" d="m593.7693 528.5729c-9.440186 -31.910553 -35.129333 -112.06915 -28.680481 -157.61725c6.4489136 -45.548096 23.835327 -80.050446 67.37384 -115.67136c43.538574 -35.62094 158.36469 -116.749756 193.85748 -98.05423c35.492798 18.695526 25.634094 157.23474 19.099426 210.22739c-6.534729 52.992645 -21.026062 75.234955 -58.30768 107.728516c-37.281616 32.49353 -133.1582 78.33493 -165.38196 87.23276c-32.223755 8.897827 -18.520447 -1.9353638 -27.960632 -33.845825z" fill-rule="evenodd"/><path fill="#000000" fill-opacity="0.0" d="m628.0376 546.2799l158.11157 -310.83145" fill-rule="evenodd"/><path stroke="#000000" stroke-width="31.84776902887139" stroke-linejoin="round" stroke-linecap="butt" d="m628.0376 546.2799l158.11157 -310.83145" fill-rule="evenodd"/></g></svg>