<svg version="1.1" viewBox="0.0 0.0 805.8818897637796 900.0" fill="none" stroke="none" stroke-linecap="square" stroke-miterlimit="10" xmlns:xlink="http://www.w3.org/1999/xlink" xmlns="http://www.w3.org/2000/svg"><clipPath id="p.0"><path d="m0 0l805.8819 0l0 900.0l-805.8819 0l0 -900.0z" clip-rule="nonzero"/></clipPath><g clip-path="url(#p.0)"><path fill="#000000" fill-opacity="0.0" d="m0 0l805.8819 0l0 900.0l-805.8819 0z" fill-rule="evenodd"/><path fill="#ffe082" d="m111.19803 689.43054l407.49686 -436.33545c53.38318 -57.161118 129.81189 -72.538055 170.70825 -34.345352c40.896423 38.192703 30.773865 115.49226 -22.609375 172.6534l-407.49683 436.33545c-53.383194 57.161133 -129.81189 72.538025 -170.70827 34.345337c-40.89638 -38.192688 -30.773827 -115.49225 22.60936 -172.65338z" fill-rule="evenodd"/><path stroke="#000000" stroke-width="31.07086614173228" stroke-linejoin="round" stroke-linecap="butt" d="m111.19803 689.43054l407.49686 -436.33545c53.38318 -57.161118 129.81189 -72.538055 170.70825 -34.345352c40.896423 38.192703 30.773865 115.49226 -22.609375 172.6534l-407.49683 436.33545c-53.383194 57.161133 -129.81189 72.538025 -170.70827 34.345337c-40.89638 -38.192688 -30.773827 -115.49225 22.60936 -172.65338z" fill-rule="evenodd"/><path fill="#ffe082" d="m165.28394 300.10117c151.00421 -138.3669 369.2213 -145.97452 487.40155 -16.992126c56.752197 61.939545 82.373535 147.73782 71.22766 238.52017c-11.145874 90.78241 -58.145935 179.11243 -130.6607 245.5586c-151.00421 138.36688 -369.22134 145.97449 -487.40158 16.992126c-118.180244 -128.98242 -91.57115 -345.71185 59.433067 -484.07877z" fill-rule="evenodd"/><path stroke="#000000" stroke-width="31.07086614173228" stroke-linejoin="round" stroke-linecap="butt" d="m165.28394 300.10117c151.00421 -138.3669 369.2213 -145.97452 487.40155 -16.992126c56.752197 61.939545 82.373535 147.73782 71.22766 238.52017c-11.145874 90.78241 -58.145935 179.11243 -130.6607 245.5586c-151.00421 138.36688 -369.22134 145.97449 -487.40158 16.992126c-118.180244 -128.98242 -91.57115 -345.71185 59.433067 -484.07877z" fill-rule="evenodd"/><path fill="#5fc39c" d="m683.05035 139.93462c-22.95929 20.854156 -79.88818 74.627655 -120.16754 90.39424c-40.27942 15.766571 -75.50177 18.925034 -121.50885 4.2052c-46.00705 -14.719833 -156.69391 -59.252335 -154.53357 -92.5242c2.1603394 -33.271873 120.99771 -88.083145 167.49567 -107.107025c46.497955 -19.023876 70.44165 -18.753088 111.492065 -7.0362434c41.050415 11.716843 115.2735 58.6593 134.81049 77.3373c19.537048 18.678009 5.3710938 13.876564 -17.588257 34.73072z" fill-rule="evenodd"/><path stroke="#000000" stroke-width="30.031496062992126" stroke-linejoin="round" stroke-linecap="butt" d="m683.05035 139.93462c-22.95929 20.854156 -79.88818 74.627655 -120.16754 90.39424c-40.27942 15.766571 -75.50177 18.925034 -121.50885 4.2052c-46.00705 -14.719833 -156.69391 -59.252335 -154.53357 -92.5242c2.1603394 -33.271873 120.99771 -88.083145 167.49567 -107.107025c46.497955 -19.023876 70.44165 -18.753088 111.492065 -7.0362434c41.050415 11.716843 115.2735 58.6593 134.81049 77.3373c19.537048 18.678009 5.3710938 13.876564 -17.588257 34.73072z" fill-rule="evenodd"/><path fill="#000000" fill-opacity="0.0" d="m684.85077 107.96365l-317.875 27.416458" fill-rule="evenodd"/><path stroke="#000000" stroke-width="30.031496062992126" stroke-linejoin="round" stroke-linecap="butt" d="m684.85077 107.96365l-317.875 27.416458" fill-rule="evenodd"/><path fill="#000000" fill-opacity="0.0" d="m680.9062 224.18251l101.165344 -118.36221" fill-rule="evenodd"/><path stroke="#000000" stroke-width="31.07086614173228" stroke-linejoin="round" stroke-linecap="butt" d="m680.9062 224.18251l101.165344 -118.36221" fill-rule="evenodd"/><path fill="#000000" fill-opacity="0.0" d="m704.5655 119.603035l69.51178 -5.1338577" fill-rule="evenodd"/><path stroke="#000000" stroke-width="31.07086614173228" stroke-linejoin="round" stroke-linecap="butt" d="m704.5655 119.603035l69.51178 -5.1338577" fill-rule="evenodd"/></g></svg>