<svg version="1.1" viewBox="0.0 0.0 966.0918635170603 769.6666666666666" fill="none" stroke="none" stroke-linecap="square" stroke-miterlimit="10" xmlns:xlink="http://www.w3.org/1999/xlink" xmlns="http://www.w3.org/2000/svg"><clipPath id="p.0"><path d="m0 0l966.09186 0l0 769.6667l-966.09186 0l0 -769.6667z" clip-rule="nonzero"/></clipPath><g clip-path="url(#p.0)"><path fill="#000000" fill-opacity="0.0" d="m0 0l966.09186 0l0 769.6667l-966.09186 0z" fill-rule="evenodd"/><path fill="#ffffff" d="m155.39507 285.67453c17.786179 -152.18707 155.5767 -261.1405 307.7638 -243.35434c73.082794 8.541225 139.77933 45.764656 185.41714 103.48155c45.637756 57.716904 66.47839 131.19942 57.937195 204.28224c-17.786194 152.18704 -155.57672 261.1405 -307.7638 243.35431c-152.18706 -17.786194 -261.1405 -155.57672 -243.35432 -307.76376zm82.93225 9.692322c-12.433243 106.38486 63.72957 202.70593 170.11443 215.13919c106.38486 12.433228 202.7059 -63.729553 215.13919 -170.11441c12.433228 -106.38484 -63.729553 -202.70593 -170.11441 -215.13919c-106.38486 -12.43325 -202.70595 63.72957 -215.1392 170.11441z" fill-rule="evenodd"/><path stroke="#000000" stroke-width="8.0" stroke-linejoin="round" stroke-linecap="butt" d="m155.39507 285.67453c17.786179 -152.18707 155.5767 -261.1405 307.7638 -243.35434c73.082794 8.541225 139.77933 45.764656 185.41714 103.48155c45.637756 57.716904 66.47839 131.19942 57.937195 204.28224c-17.786194 152.18704 -155.57672 261.1405 -307.7638 243.35431c-152.18706 -17.786194 -261.1405 -155.57672 -243.35432 -307.76376zm82.93225 9.692322c-12.433243 106.38486 63.72957 202.70593 170.11443 215.13919c106.38486 12.433228 202.7059 -63.729553 215.13919 -170.11441c12.433228 -106.38484 -63.729553 -202.70593 -170.11441 -215.13919c-106.38486 -12.43325 -202.70595 63.72957 -215.1392 170.11441z" fill-rule="evenodd"/><path fill="#ffffff" d="m619.35443 468.7402l217.44885 229.16537l-68.315 64.881836l-217.44879 -229.16534z" fill-rule="evenodd"/><path stroke="#000000" stroke-width="8.0" stroke-linejoin="round" stroke-linecap="butt" d="m619.35443 468.7402l217.44885 229.16537l-68.315 64.881836l-217.44879 -229.16534z" fill-rule="evenodd"/><path fill="#ffffff" d="m180.04724 323.66666c0 -146.11627 116.3002 -264.56693 259.7638 -264.56693c68.893616 0 134.96558 27.873932 183.68073 77.48986c48.71515 49.61592 76.08307 116.90956 76.08307 187.07706c0 146.1163 -116.30023 264.56693 -259.7638 264.56693c-143.4636 0 -259.7638 -118.45062 -259.7638 -264.56693zm47.22505 0c0 120.03461 95.156845 217.34189 212.53874 217.34189c117.3819 0 212.5387 -97.30728 212.5387 -217.34189c0 -120.03459 -95.1568 -217.34186 -212.5387 -217.34186c-117.3819 0 -212.53874 97.307274 -212.53874 217.34186z" fill-rule="evenodd"/><path stroke="#ffffff" stroke-width="1.0" stroke-linejoin="round" stroke-linecap="butt" d="m180.04724 323.66666c0 -146.11627 116.3002 -264.56693 259.7638 -264.56693c68.893616 0 134.96558 27.873932 183.68073 77.48986c48.71515 49.61592 76.08307 116.90956 76.08307 187.07706c0 146.1163 -116.30023 264.56693 -259.7638 264.56693c-143.4636 0 -259.7638 -118.45062 -259.7638 -264.56693zm47.22505 0c0 120.03461 95.156845 217.34189 212.53874 217.34189c117.3819 0 212.5387 -97.30728 212.5387 -217.34189c0 -120.03459 -95.1568 -217.34186 -212.5387 -217.34186c-117.3819 0 -212.53874 97.307274 -212.53874 217.34186z" fill-rule="evenodd"/><path fill="#66c3ff" d="m472.43497 373.23163l38.70172 -23.397217l16.306183 -55.53192l16.306152 55.53192l38.70172 23.397217l-38.70172 23.397217l-16.306152 55.53192l-16.306183 -55.53192z" fill-rule="evenodd"/><path stroke="#000000" stroke-width="8.868766404199475" stroke-linejoin="round" stroke-linecap="butt" d="m472.43497 373.23163l38.70172 -23.397217l16.306183 -55.53192l16.306152 55.53192l38.70172 23.397217l-38.70172 23.397217l-16.306152 55.53192l-16.306183 -55.53192z" fill-rule="evenodd"/><path fill="#5fc39c" d="m428.68686 312.0184c-12.305359 -1.0241394 -43.4599 -2.9039917 -58.566742 -11.351715c-15.106842 -8.447693 -25.008179 -19.230194 -32.07431 -39.334534c-7.066162 -20.10434 -21.2276 -71.3857 -10.322571 -81.29146c10.90506 -9.905777 58.057465 12.367889 75.75284 21.856842c17.695404 9.488937 23.673462 17.591156 30.419495 35.076797c6.7460327 17.485657 10.924866 57.329773 10.056732 69.8371c-0.868103 12.507355 -2.960083 6.231079 -15.265442 5.20697z" fill-rule="evenodd"/><path stroke="#000000" stroke-width="8.868766404199475" stroke-linejoin="round" stroke-linecap="butt" d="m428.68686 312.0184c-12.305359 -1.0241394 -43.4599 -2.9039917 -58.566742 -11.351715c-15.106842 -8.447693 -25.008179 -19.230194 -32.07431 -39.334534c-7.066162 -20.10434 -21.2276 -71.3857 -10.322571 -81.29146c10.90506 -9.905777 58.057465 12.367889 75.75284 21.856842c17.695404 9.488937 23.673462 17.591156 30.419495 35.076797c6.7460327 17.485657 10.924866 57.329773 10.056732 69.8371c-0.868103 12.507355 -2.960083 6.231079 -15.265442 5.20697z" fill-rule="evenodd"/><path fill="#000000" fill-opacity="0.0" d="m340.93048 194.31387l98.717926 119.98404" fill-rule="evenodd"/><path stroke="#000000" stroke-width="8.868766404199475" stroke-linejoin="round" stroke-linecap="butt" d="m340.93048 194.31387l98.717926 119.98404" fill-rule="evenodd"/><path fill="#5fc39c" d="m463.94577 294.17938c-2.6290588 -8.887024 -9.783447 -31.21103 -7.9874573 -43.896072c1.7960205 -12.685043 6.638092 -22.293869 18.763489 -32.21422c12.125397 -9.920349 44.104187 -32.514557 53.98889 -27.307892c9.884644 5.206665 7.139038 43.789536 5.319153 58.547882c-1.8199463 14.758331 -5.855713 20.95279 -16.238586 30.002167c-10.382843 9.049377 -37.08426 21.816101 -46.058502 24.294128c-8.974243 2.4780273 -5.1579285 -0.53900146 -7.7869873 -9.425995z" fill-rule="evenodd"/><path stroke="#000000" stroke-width="8.868766404199475" stroke-linejoin="round" stroke-linecap="butt" d="m463.94577 294.17938c-2.6290588 -8.887024 -9.783447 -31.21103 -7.9874573 -43.896072c1.7960205 -12.685043 6.638092 -22.293869 18.763489 -32.21422c12.125397 -9.920349 44.104187 -32.514557 53.98889 -27.307892c9.884644 5.206665 7.139038 43.789536 5.319153 58.547882c-1.8199463 14.758331 -5.855713 20.95279 -16.238586 30.002167c-10.382843 9.049377 -37.08426 21.816101 -46.058502 24.294128c-8.974243 2.4780273 -5.1579285 -0.53900146 -7.7869873 -9.425995z" fill-rule="evenodd"/><path fill="#000000" fill-opacity="0.0" d="m473.48944 299.11078l44.03369 -86.56592" fill-rule="evenodd"/><path stroke="#000000" stroke-width="8.868766404199475" stroke-linejoin="round" stroke-linecap="butt" d="m473.48944 299.11078l44.03369 -86.56592" fill-rule="evenodd"/><path fill="#ffe082" d="m454.42255 415.1195c-17.454681 29.866547 -51.432465 45.36148 -86.961395 39.657166c-35.52893 -5.704315 -66.08414 -31.560272 -78.20181 -66.174774c-12.117645 -34.61447 -3.5723572 -71.63052 21.870483 -94.73743z" fill-rule="evenodd"/><path stroke="#000000" stroke-width="8.868766404199475" stroke-linejoin="round" stroke-linecap="butt" d="m454.42255 415.1195c-17.454681 29.866547 -51.432465 45.36148 -86.961395 39.657166c-35.52893 -5.704315 -66.08414 -31.560272 -78.20181 -66.174774c-12.117645 -34.61447 -3.5723572 -71.63052 21.870483 -94.73743z" fill-rule="evenodd"/><path fill="#000000" fill-opacity="0.0" d="m382.77618 354.492l-75.25192 23.605713" fill-rule="evenodd"/><path stroke="#000000" stroke-width="8.868766404199475" stroke-linejoin="round" stroke-linecap="butt" d="m382.77618 354.492l-75.25192 23.605713" fill-rule="evenodd"/><path fill="#000000" fill-opacity="0.0" d="m382.77618 354.492l-5.3776245 78.28992" fill-rule="evenodd"/><path stroke="#000000" stroke-width="8.868766404199475" stroke-linejoin="round" stroke-linecap="butt" d="m382.77618 354.492l-5.3776245 78.28992" fill-rule="evenodd"/><path fill="#000000" fill-opacity="0.0" d="m326.32108 311.54758c-5.136688 20.495483 -20.029205 39.982605 -17.413269 60.9494c2.9273071 23.462524 22.318848 44.360077 42.37213 56.887085c27.582092 17.230164 65.52963 -9.253693 94.6178 -23.79776" fill-rule="evenodd"/><path stroke="#000000" stroke-width="8.868766404199475" stroke-linejoin="round" stroke-linecap="butt" d="m326.32108 311.54758c-5.136688 20.495483 -20.029205 39.982605 -17.413269 60.9494c2.9273071 23.462524 22.318848 44.360077 42.37213 56.887085c27.582092 17.230164 65.52963 -9.253693 94.6178 -23.79776" fill-rule="evenodd"/></g></svg>